<svg xmlns="http://www.w3.org/2000/svg" xmlns:xlink="http://www.w3.org/1999/xlink" width="1080" zoomAndPan="magnify" viewBox="0 0 810 809.999993" height="1080" preserveAspectRatio="xMidYMid meet" version="1.0"><defs><clipPath id="4a6df17814"><path d="M 74.558594 688.410156 L 570.515625 688.410156 L 570.515625 810 L 74.558594 810 Z M 74.558594 688.410156 " clip-rule="nonzero"/></clipPath><clipPath id="bd9ebe1225"><path d="M 74.558594 0 L 735.441406 0 L 735.441406 660.886719 L 74.558594 660.886719 Z M 74.558594 0 " clip-rule="nonzero"/></clipPath><clipPath id="21803a70f9"><path d="M 405.007812 0 C 222.5 0 74.558594 147.945312 74.558594 330.449219 C 74.558594 512.953125 222.5 660.882812 405.007812 660.882812 C 587.511719 660.882812 735.441406 512.9375 735.441406 330.449219 C 735.441406 147.960938 587.496094 0 405.007812 0 M 405.007812 121.597656 C 460.792969 121.597656 513.242188 143.324219 552.6875 182.769531 C 592.128906 222.210938 613.859375 274.660156 613.859375 330.449219 C 613.859375 386.238281 592.128906 438.6875 552.6875 478.128906 C 513.242188 517.574219 460.792969 539.300781 405.007812 539.300781 C 349.21875 539.300781 296.769531 517.574219 257.324219 478.128906 C 217.882812 438.6875 196.152344 386.238281 196.152344 330.449219 C 196.152344 274.660156 217.882812 222.210938 257.324219 182.769531 C 296.769531 143.324219 349.21875 121.597656 405.007812 121.597656 " clip-rule="nonzero"/></clipPath><clipPath id="b0bc110286"><path d="M 613.851562 688.410156 L 735.449219 688.410156 L 735.449219 810 L 613.851562 810 Z M 613.851562 688.410156 " clip-rule="nonzero"/></clipPath></defs><g clip-path="url(#4a6df17814)"><path fill="#ffffff" d="M 74.558594 688.410156 L 570.421875 688.410156 L 570.421875 810 L 74.558594 810 Z M 74.558594 688.410156 " fill-opacity="1" fill-rule="nonzero"/></g><g clip-path="url(#bd9ebe1225)"><g clip-path="url(#21803a70f9)"><path fill="#ffffff" d="M 74.558594 0 L 735.441406 0 L 735.441406 660.886719 L 74.558594 660.886719 Z M 74.558594 0 " fill-opacity="1" fill-rule="nonzero"/></g></g><g clip-path="url(#b0bc110286)"><path fill="#ffffff" d="M 613.851562 688.410156 L 735.441406 688.410156 L 735.441406 810 L 613.851562 810 Z M 613.851562 688.410156 " fill-opacity="1" fill-rule="nonzero"/></g></svg>