<svg xmlns="http://www.w3.org/2000/svg" xmlns:xlink="http://www.w3.org/1999/xlink" width="1080" zoomAndPan="magnify" viewBox="0 0 810 809.999993" height="1080" preserveAspectRatio="xMidYMid meet" version="1.0"><defs><clipPath id="53efa45e7c"><path d="M 72.414062 0 L 727.355469 0 L 727.355469 654.9375 L 72.414062 654.9375 Z M 72.414062 0 " clip-rule="nonzero"/></clipPath><clipPath id="5c4b43dcab"><path d="M 399.890625 0 C 219.027344 0 72.414062 146.613281 72.414062 327.476562 C 72.414062 508.335938 219.027344 654.9375 399.890625 654.9375 C 580.753906 654.9375 727.351562 508.320312 727.351562 327.476562 C 727.351562 146.628906 580.738281 0 399.890625 0 M 399.890625 120.5 C 455.175781 120.5 507.152344 142.035156 546.242188 181.125 C 585.328125 220.210938 606.863281 272.1875 606.863281 327.476562 C 606.863281 382.761719 585.328125 434.738281 546.242188 473.828125 C 507.152344 512.914062 455.175781 534.449219 399.890625 534.449219 C 344.605469 534.449219 292.628906 512.914062 253.539062 473.828125 C 214.449219 434.738281 192.917969 382.761719 192.917969 327.476562 C 192.917969 272.1875 214.449219 220.210938 253.539062 181.125 C 292.628906 142.035156 344.605469 120.5 399.890625 120.5 " clip-rule="nonzero"/></clipPath><clipPath id="a66fad2490"><path d="M 72.414062 682.214844 L 563.914062 682.214844 L 563.914062 802.714844 L 72.414062 802.714844 Z M 72.414062 682.214844 " clip-rule="nonzero"/></clipPath><clipPath id="2f63626aaf"><path d="M 94.144531 703.414062 L 175.929688 703.414062 L 175.929688 783.617188 L 94.144531 783.617188 Z M 94.144531 703.414062 " clip-rule="nonzero"/></clipPath><clipPath id="ee999cc75a"><path d="M 155.054688 703.441406 L 175.65625 703.441406 L 147.324219 783.324219 L 122.964844 783.324219 L 94.636719 703.441406 L 115.339844 703.441406 L 135.152344 763.757812 Z M 155.054688 703.441406 " clip-rule="nonzero"/></clipPath><clipPath id="debe9b9333"><path d="M 183.730469 703.441406 L 203.179688 703.441406 L 203.179688 783.324219 L 183.730469 783.324219 Z M 183.730469 703.441406 " clip-rule="nonzero"/></clipPath><clipPath id="731553e0e4"><path d="M 217.085938 703.414062 L 288.847656 703.414062 L 288.847656 783.617188 L 217.085938 783.617188 Z M 217.085938 703.414062 " clip-rule="nonzero"/></clipPath><clipPath id="d6eb8e2156"><path d="M 288.765625 703.441406 L 288.765625 783.324219 L 269.300781 783.324219 L 236.757812 734.042969 L 236.757812 783.324219 L 217.292969 783.324219 L 217.292969 703.441406 L 236.757812 703.441406 L 269.300781 752.9375 L 269.300781 703.441406 Z M 288.765625 703.441406 " clip-rule="nonzero"/></clipPath><clipPath id="5c7ce99b1e"><path d="M 302.863281 703.441406 L 322.328125 703.441406 L 322.328125 783.324219 L 302.863281 783.324219 Z M 302.863281 703.441406 " clip-rule="nonzero"/></clipPath><clipPath id="cd23b578d7"><path d="M 336.425781 703.441406 L 355.890625 703.441406 L 355.890625 768.304688 L 336.425781 768.304688 Z M 336.425781 768.304688 L 381.375 768.304688 L 381.375 783.324219 L 336.425781 783.324219 Z M 336.425781 768.304688 " clip-rule="nonzero"/></clipPath><clipPath id="28801ac21d"><path d="M 387 702 L 469.828125 702 L 469.828125 784.144531 L 387 784.144531 Z M 387 702 " clip-rule="nonzero"/></clipPath><clipPath id="c0c4f5a56e"><path d="M 428.480469 766.382812 C 441.222656 766.382812 449.535156 757.167969 449.535156 743.171875 C 449.535156 728.941406 441.222656 719.960938 428.480469 719.960938 C 415.503906 719.960938 407.3125 728.957031 407.3125 743.171875 C 407.3125 757.167969 415.503906 766.382812 428.480469 766.382812 M 428.480469 784.125 C 405.839844 784.125 387.410156 767.167969 387.410156 743.15625 C 387.410156 719.144531 405.839844 702.304688 428.480469 702.304688 C 451.242188 702.304688 469.332031 719.144531 469.332031 743.15625 C 469.332031 767.167969 451.125 784.125 428.480469 784.125 " clip-rule="nonzero"/></clipPath><clipPath id="bf2022deb7"><path d="M 477.742188 702 L 538.421875 702 L 538.421875 784.144531 L 477.742188 784.144531 Z M 477.742188 702 " clip-rule="nonzero"/></clipPath><clipPath id="6c8cf1c066"><path d="M 509.035156 784.125 C 491.859375 784.125 478.429688 775.597656 477.847656 759.425781 L 498.566406 759.425781 C 499.132812 765.566406 503 768.539062 508.464844 768.539062 C 514.152344 768.539062 517.796875 765.695312 517.796875 761.03125 C 517.796875 746.234375 477.847656 754.207031 478.082031 725.863281 C 478.082031 710.730469 490.488281 702.320312 507.210938 702.320312 C 524.621094 702.320312 536.34375 710.964844 537.144531 726.214844 L 516.089844 726.214844 C 515.753906 721.097656 512.109375 718.019531 506.875 717.902344 C 502.210938 717.789062 498.683594 720.179688 498.683594 725.195312 C 498.683594 739.074219 538.164062 732.820312 538.164062 759.558594 C 538.164062 772.988281 527.695312 784.140625 509.035156 784.140625 " clip-rule="nonzero"/></clipPath><clipPath id="56531d5a97"><path d="M 594.339844 695 L 661.710938 695 L 661.710938 784.757812 L 594.339844 784.757812 Z M 594.339844 695 " clip-rule="nonzero"/></clipPath><clipPath id="1071d34797"><path d="M 628.511719 784.367188 C 621.921875 784.367188 616.089844 783.199219 611 780.867188 C 605.914062 778.535156 601.933594 775.179688 599.058594 770.792969 C 596.1875 766.402344 594.730469 761.226562 594.730469 755.222656 L 594.730469 752.960938 L 610.738281 752.960938 L 610.738281 754.710938 C 610.738281 759.375 612.371094 763.109375 615.621094 765.90625 C 618.875 768.707031 623.175781 770.09375 628.511719 770.09375 C 633.933594 770.09375 638.117188 768.792969 641.078125 766.214844 C 644.039062 763.632812 645.523438 760.382812 645.523438 756.460938 L 645.523438 755.207031 C 645.523438 752.539062 644.855469 750.367188 643.527344 748.703125 C 642.199219 747.042969 640.394531 745.800781 638.148438 745.015625 C 635.902344 744.226562 633.351562 743.820312 630.523438 743.820312 L 612.996094 743.820312 L 612.996094 726.324219 L 641.269531 711.308594 L 641.269531 709.308594 L 596.988281 709.308594 L 596.988281 695.050781 L 659.027344 695.050781 L 659.027344 716.324219 L 632.636719 730.332031 L 632.636719 732.332031 L 637.257812 732.332031 C 641.179688 732.332031 644.984375 733.117188 648.703125 734.707031 C 652.421875 736.296875 655.484375 738.730469 657.902344 742.027344 C 660.324219 745.320312 661.535156 749.59375 661.535156 754.84375 L 661.535156 756.34375 C 661.535156 762.015625 660.164062 766.957031 657.40625 771.171875 C 654.652344 775.386719 650.804688 778.636719 645.832031 780.925781 C 640.859375 783.214844 635.085938 784.367188 628.511719 784.367188 " clip-rule="nonzero"/></clipPath><clipPath id="552ca95409"><path d="M 670.636719 695 L 737.601562 695 L 737.601562 784.757812 L 670.636719 784.757812 Z M 670.636719 695 " clip-rule="nonzero"/></clipPath><clipPath id="c85b8af80e"><path d="M 704.558594 784.367188 C 697.96875 784.367188 692.136719 783.199219 687.046875 780.867188 C 681.960938 778.535156 677.980469 775.179688 675.109375 770.792969 C 672.234375 766.402344 670.792969 761.226562 670.792969 755.222656 L 670.792969 752.960938 L 686.800781 752.960938 L 686.800781 754.710938 C 686.800781 759.375 688.433594 763.109375 691.683594 765.90625 C 694.9375 768.707031 699.238281 770.09375 704.574219 770.09375 C 709.996094 770.09375 714.179688 768.792969 717.140625 766.214844 C 720.101562 763.632812 721.585938 760.382812 721.585938 756.460938 L 721.585938 755.207031 C 721.585938 752.539062 720.917969 750.367188 719.589844 748.703125 C 718.261719 747.042969 716.457031 745.800781 714.210938 745.015625 C 711.964844 744.226562 709.414062 743.820312 706.585938 743.820312 L 689.046875 743.820312 L 689.046875 726.324219 L 717.316406 711.308594 L 717.316406 709.308594 L 673.039062 709.308594 L 673.039062 695.050781 L 735.089844 695.050781 L 735.089844 716.324219 L 708.683594 730.332031 L 708.683594 732.332031 L 713.304688 732.332031 C 717.226562 732.332031 721.035156 733.117188 724.75 734.707031 C 728.46875 736.296875 731.53125 738.730469 733.953125 742.027344 C 736.371094 745.320312 737.582031 749.59375 737.582031 754.84375 L 737.582031 756.34375 C 737.582031 762.015625 736.210938 766.957031 733.457031 771.171875 C 730.699219 775.386719 726.851562 778.636719 721.878906 780.925781 C 716.90625 783.214844 711.132812 784.367188 704.558594 784.367188 " clip-rule="nonzero"/></clipPath></defs><g clip-path="url(#53efa45e7c)"><g clip-path="url(#5c4b43dcab)"><path fill="#ffffff" d="M 72.414062 0 L 727.355469 0 L 727.355469 654.9375 L 72.414062 654.9375 Z M 72.414062 0 " fill-opacity="1" fill-rule="nonzero"/></g></g><g clip-path="url(#a66fad2490)"><path fill="#ffffff" d="M 65.125 674.921875 L 571.136719 674.921875 L 571.136719 810 L 65.125 810 Z M 65.125 674.921875 " fill-opacity="1" fill-rule="nonzero"/></g><g clip-path="url(#2f63626aaf)"><g clip-path="url(#ee999cc75a)"><path fill="#000000" d="M 65.125 674.921875 L 571.136719 674.921875 L 571.136719 810 L 65.125 810 Z M 65.125 674.921875 " fill-opacity="1" fill-rule="nonzero"/></g></g><g clip-path="url(#debe9b9333)"><path fill="#000000" d="M 65.125 674.921875 L 571.136719 674.921875 L 571.136719 810 L 65.125 810 Z M 65.125 674.921875 " fill-opacity="1" fill-rule="nonzero"/></g><g clip-path="url(#731553e0e4)"><g clip-path="url(#d6eb8e2156)"><path fill="#000000" d="M 65.125 674.921875 L 571.136719 674.921875 L 571.136719 810 L 65.125 810 Z M 65.125 674.921875 " fill-opacity="1" fill-rule="nonzero"/></g></g><g clip-path="url(#5c7ce99b1e)"><path fill="#000000" d="M 65.125 674.921875 L 571.136719 674.921875 L 571.136719 810 L 65.125 810 Z M 65.125 674.921875 " fill-opacity="1" fill-rule="nonzero"/></g><g clip-path="url(#cd23b578d7)"><path fill="#000000" d="M 65.125 674.921875 L 571.136719 674.921875 L 571.136719 810 L 65.125 810 Z M 65.125 674.921875 " fill-opacity="1" fill-rule="nonzero"/></g><g clip-path="url(#28801ac21d)"><g clip-path="url(#c0c4f5a56e)"><path fill="#000000" d="M 65.125 674.921875 L 571.136719 674.921875 L 571.136719 810 L 65.125 810 Z M 65.125 674.921875 " fill-opacity="1" fill-rule="nonzero"/></g></g><g clip-path="url(#bf2022deb7)"><g clip-path="url(#6c8cf1c066)"><path fill="#000000" d="M 65.125 674.921875 L 571.136719 674.921875 L 571.136719 810 L 65.125 810 Z M 65.125 674.921875 " fill-opacity="1" fill-rule="nonzero"/></g></g><g clip-path="url(#56531d5a97)"><g clip-path="url(#1071d34797)"><path fill="#ffffff" d="M 587.441406 687.761719 L 744.90625 687.761719 L 744.90625 791.65625 L 587.441406 791.65625 Z M 587.441406 687.761719 " fill-opacity="1" fill-rule="nonzero"/></g></g><g clip-path="url(#552ca95409)"><g clip-path="url(#c85b8af80e)"><path fill="#ffffff" d="M 587.441406 687.761719 L 744.90625 687.761719 L 744.90625 791.65625 L 587.441406 791.65625 Z M 587.441406 687.761719 " fill-opacity="1" fill-rule="nonzero"/></g></g></svg>