<svg xmlns="http://www.w3.org/2000/svg" xmlns:xlink="http://www.w3.org/1999/xlink" width="1920" zoomAndPan="magnify" viewBox="0 0 1440 809.999993" height="1080" preserveAspectRatio="xMidYMid meet" version="1.0"><defs><clipPath id="425d565ee7"><path d="M 15.441406 274.828125 L 1056.644531 274.828125 L 1056.644531 530.101562 L 15.441406 530.101562 Z M 15.441406 274.828125 " clip-rule="nonzero"/></clipPath><clipPath id="ce28b98fd4"><path d="M 62 319.746094 L 234.734375 319.746094 L 234.734375 489.648438 L 62 489.648438 Z M 62 319.746094 " clip-rule="nonzero"/></clipPath><clipPath id="7db779b4d0"><path d="M 190.503906 319.800781 L 234.148438 319.800781 L 174.136719 489.023438 L 122.523438 489.023438 L 62.511719 319.800781 L 106.371094 319.800781 L 148.347656 447.574219 Z M 190.503906 319.800781 " clip-rule="nonzero"/></clipPath><clipPath id="18876ba970"><path d="M 251.257812 319.800781 L 292.460938 319.800781 L 292.460938 489.023438 L 251.257812 489.023438 Z M 251.257812 319.800781 " clip-rule="nonzero"/></clipPath><clipPath id="23487c9490"><path d="M 322 319.746094 L 473.9375 319.746094 L 473.9375 489.648438 L 322 489.648438 Z M 322 319.746094 " clip-rule="nonzero"/></clipPath><clipPath id="8e961a121a"><path d="M 473.761719 319.800781 L 473.761719 489.023438 L 432.527344 489.023438 L 363.589844 384.628906 L 363.589844 489.023438 L 322.359375 489.023438 L 322.359375 319.800781 L 363.589844 319.800781 L 432.527344 424.660156 L 432.527344 319.800781 Z M 473.761719 319.800781 " clip-rule="nonzero"/></clipPath><clipPath id="abf1fdaac6"><path d="M 503.628906 319.800781 L 544.863281 319.800781 L 544.863281 489.023438 L 503.628906 489.023438 Z M 503.628906 319.800781 " clip-rule="nonzero"/></clipPath><clipPath id="53533d74d4"><path d="M 574.730469 319.800781 L 615.960938 319.800781 L 615.960938 457.210938 L 574.730469 457.210938 Z M 574.730469 457.210938 L 669.949219 457.210938 L 669.949219 489.023438 L 574.730469 489.023438 Z M 574.730469 457.210938 " clip-rule="nonzero"/></clipPath><clipPath id="a9c51af41a"><path d="M 682 317 L 857 317 L 857 490.765625 L 682 490.765625 Z M 682 317 " clip-rule="nonzero"/></clipPath><clipPath id="8f154154ee"><path d="M 769.742188 453.136719 C 796.738281 453.136719 814.34375 433.613281 814.34375 403.964844 C 814.34375 373.820312 796.738281 354.792969 769.742188 354.792969 C 742.253906 354.792969 724.898438 373.851562 724.898438 403.964844 C 724.898438 433.613281 742.253906 453.136719 769.742188 453.136719 M 769.742188 490.722656 C 721.777344 490.722656 682.738281 454.804688 682.738281 403.933594 C 682.738281 353.0625 721.777344 317.390625 769.742188 317.390625 C 817.957031 317.390625 856.285156 353.0625 856.285156 403.933594 C 856.285156 454.804688 817.710938 490.722656 769.742188 490.722656 " clip-rule="nonzero"/></clipPath><clipPath id="4af1e155bd"><path d="M 874.101562 317 L 1002.644531 317 L 1002.644531 490.765625 L 874.101562 490.765625 Z M 874.101562 317 " clip-rule="nonzero"/></clipPath><clipPath id="68c540b1ff"><path d="M 940.390625 490.722656 C 904.003906 490.722656 875.558594 472.65625 874.324219 438.402344 L 918.214844 438.402344 C 919.417969 451.40625 927.601562 457.707031 939.183594 457.707031 C 951.230469 457.707031 958.953125 451.683594 958.953125 441.800781 C 958.953125 410.449219 874.324219 427.34375 874.816406 367.300781 C 874.816406 335.242188 901.101562 317.421875 936.527344 317.421875 C 973.40625 317.421875 998.238281 335.738281 999.9375 368.042969 L 955.339844 368.042969 C 954.628906 357.203125 946.90625 350.6875 935.816406 350.4375 C 925.933594 350.191406 918.460938 355.257812 918.460938 365.882812 C 918.460938 395.285156 1002.101562 382.035156 1002.101562 438.679688 C 1002.101562 467.125 979.921875 490.753906 940.390625 490.753906 " clip-rule="nonzero"/></clipPath><clipPath id="769f37f418"><path d="M 1121.101562 302 L 1263.820312 302 L 1263.820312 492 L 1121.101562 492 Z M 1121.101562 302 " clip-rule="nonzero"/></clipPath><clipPath id="784212a28d"><path d="M 1193.492188 491.234375 C 1179.53125 491.234375 1167.175781 488.761719 1156.398438 483.820312 C 1145.617188 478.878906 1137.1875 471.773438 1131.101562 462.476562 C 1125.015625 453.179688 1121.929688 442.21875 1121.929688 429.492188 L 1121.929688 424.703125 L 1155.839844 424.703125 L 1155.839844 428.410156 C 1155.839844 438.292969 1159.300781 446.203125 1166.1875 452.132812 C 1173.074219 458.0625 1182.1875 460.996094 1193.492188 460.996094 C 1204.980469 460.996094 1213.847656 458.246094 1220.117188 452.78125 C 1226.386719 447.3125 1229.535156 440.425781 1229.535156 432.117188 L 1229.535156 429.460938 C 1229.535156 423.808594 1228.113281 419.207031 1225.304688 415.6875 C 1222.492188 412.164062 1218.664062 409.539062 1213.90625 407.871094 C 1209.152344 406.203125 1203.746094 405.339844 1197.753906 405.339844 L 1160.628906 405.339844 L 1160.628906 368.277344 L 1220.515625 336.464844 L 1220.515625 332.230469 L 1126.714844 332.230469 L 1126.714844 302.023438 L 1258.136719 302.023438 L 1258.136719 347.085938 L 1202.234375 376.769531 L 1202.234375 381 L 1212.023438 381 C 1220.332031 381 1228.394531 382.667969 1236.269531 386.035156 C 1244.144531 389.402344 1250.632812 394.558594 1255.757812 401.539062 C 1260.886719 408.519531 1263.449219 417.570312 1263.449219 428.6875 L 1263.449219 431.871094 C 1263.449219 443.886719 1260.546875 454.355469 1254.707031 463.28125 C 1248.871094 472.207031 1240.714844 479.09375 1230.183594 483.945312 C 1219.652344 488.792969 1207.421875 491.234375 1193.492188 491.234375 " clip-rule="nonzero"/></clipPath><clipPath id="4316c1d5ce"><path d="M 1283 302 L 1424.59375 302 L 1424.59375 492 L 1283 492 Z M 1283 302 " clip-rule="nonzero"/></clipPath><clipPath id="9b3257f395"><path d="M 1354.59375 491.234375 C 1340.632812 491.234375 1328.277344 488.761719 1317.5 483.820312 C 1306.71875 478.878906 1298.289062 471.773438 1292.203125 462.476562 C 1286.121094 453.179688 1283.0625 442.21875 1283.0625 429.492188 L 1283.0625 424.703125 L 1316.972656 424.703125 L 1316.972656 428.410156 C 1316.972656 438.292969 1320.433594 446.203125 1327.320312 452.132812 C 1334.207031 458.0625 1343.320312 460.996094 1354.625 460.996094 C 1366.113281 460.996094 1374.980469 458.246094 1381.25 452.78125 C 1387.519531 447.3125 1390.667969 440.425781 1390.667969 432.117188 L 1390.667969 429.460938 C 1390.667969 423.808594 1389.246094 419.207031 1386.4375 415.6875 C 1383.625 412.164062 1379.796875 409.539062 1375.039062 407.871094 C 1370.285156 406.203125 1364.878906 405.339844 1358.886719 405.339844 L 1321.730469 405.339844 L 1321.730469 368.277344 L 1381.617188 336.464844 L 1381.617188 332.230469 L 1287.816406 332.230469 L 1287.816406 302.023438 L 1419.269531 302.023438 L 1419.269531 347.085938 L 1363.335938 376.769531 L 1363.335938 381 L 1373.125 381 C 1381.433594 381 1389.496094 382.667969 1397.371094 386.035156 C 1405.246094 389.402344 1411.734375 394.558594 1416.859375 401.539062 C 1421.988281 408.519531 1424.550781 417.570312 1424.550781 428.6875 L 1424.550781 431.871094 C 1424.550781 443.886719 1421.648438 454.355469 1415.808594 463.28125 C 1409.972656 472.207031 1401.820312 479.09375 1391.285156 483.945312 C 1380.753906 488.792969 1368.523438 491.234375 1354.59375 491.234375 " clip-rule="nonzero"/></clipPath></defs><g clip-path="url(#425d565ee7)"><path fill="#ffffff" d="M 0 259.386719 L 1071.945312 259.386719 L 1071.945312 545.539062 L 0 545.539062 Z M 0 259.386719 " fill-opacity="1" fill-rule="nonzero"/></g><g clip-path="url(#ce28b98fd4)"><g clip-path="url(#7db779b4d0)"><path fill="#000000" d="M 0 259.386719 L 1071.945312 259.386719 L 1071.945312 545.539062 L 0 545.539062 Z M 0 259.386719 " fill-opacity="1" fill-rule="nonzero"/></g></g><g clip-path="url(#18876ba970)"><path fill="#000000" d="M 0 259.386719 L 1071.945312 259.386719 L 1071.945312 545.539062 L 0 545.539062 Z M 0 259.386719 " fill-opacity="1" fill-rule="nonzero"/></g><g clip-path="url(#23487c9490)"><g clip-path="url(#8e961a121a)"><path fill="#000000" d="M 0 259.386719 L 1071.945312 259.386719 L 1071.945312 545.539062 L 0 545.539062 Z M 0 259.386719 " fill-opacity="1" fill-rule="nonzero"/></g></g><g clip-path="url(#abf1fdaac6)"><path fill="#000000" d="M 0 259.386719 L 1071.945312 259.386719 L 1071.945312 545.539062 L 0 545.539062 Z M 0 259.386719 " fill-opacity="1" fill-rule="nonzero"/></g><g clip-path="url(#53533d74d4)"><path fill="#000000" d="M 0 259.386719 L 1071.945312 259.386719 L 1071.945312 545.539062 L 0 545.539062 Z M 0 259.386719 " fill-opacity="1" fill-rule="nonzero"/></g><g clip-path="url(#a9c51af41a)"><g clip-path="url(#8f154154ee)"><path fill="#000000" d="M 0 259.386719 L 1071.945312 259.386719 L 1071.945312 545.539062 L 0 545.539062 Z M 0 259.386719 " fill-opacity="1" fill-rule="nonzero"/></g></g><g clip-path="url(#4af1e155bd)"><g clip-path="url(#68c540b1ff)"><path fill="#000000" d="M 0 259.386719 L 1071.945312 259.386719 L 1071.945312 545.539062 L 0 545.539062 Z M 0 259.386719 " fill-opacity="1" fill-rule="nonzero"/></g></g><g clip-path="url(#769f37f418)"><g clip-path="url(#784212a28d)"><path fill="#ffffff" d="M 1106.484375 286.582031 L 1440.070312 286.582031 L 1440.070312 506.679688 L 1106.484375 506.679688 Z M 1106.484375 286.582031 " fill-opacity="1" fill-rule="nonzero"/></g></g><g clip-path="url(#4316c1d5ce)"><g clip-path="url(#9b3257f395)"><path fill="#ffffff" d="M 1106.484375 286.582031 L 1440.070312 286.582031 L 1440.070312 506.679688 L 1106.484375 506.679688 Z M 1106.484375 286.582031 " fill-opacity="1" fill-rule="nonzero"/></g></g></svg>